<?xml version="1.0" standalone="no"?><!DOCTYPE svg PUBLIC "-//W3C//DTD SVG 1.1//EN" "http://www.w3.org/Graphics/SVG/1.1/DTD/svg11.dtd"><svg class="icon" width="200px" height="200.00px" viewBox="0 0 1024 1024" version="1.1" xmlns="http://www.w3.org/2000/svg"><path fill="#333333" d="M307.2 143.36c33.0752 0.4096 72.3456 21.76 89.8048 40.1408l-1.1776 14.1312c-23.8592 9.728-46.6944 34.56-53.1968 60.2112l3.584 3.584c18.0736-0.512 83.2512 3.84 95.744-1.2288 17.2032-6.9632 25.7024-47.0016 49.6128-41.3184 17.3056 4.4544 48.2304 42.496 61.44 55.5008 0.3072 9.9328-1.2288 14.6432-4.7104 20.0704-38.9632 10.3424-95.744-2.9184-138.2912 4.7104v5.888c45.9264 23.552 37.376 70.6048-2.3552 93.2864v5.888c17.2032 25.1904 26.9824 40.0896 9.472 74.3424 21.9136 26.7776 101.2224 34.9184 146.5344 27.136 10.752-8.1408 16.384-21.3504 26.0096-30.6688 22.3232-0.4608 73.984 31.3856 80.384 44.8512v10.6496c-3.9424 8.0384-14.6944 13.4144-21.2992 18.8416l-1.1776 206.592c-4.0448 11.1104-18.432 10.7008-22.4768 22.4256l2.3552 1.1776c24.2176 5.3248 74.8544 18.432 96.9216 5.888v-258.5088c-3.584-23.9104 7.3216-53.9136-2.3552-71.9872l-176.128-1.1776c-16.384 0-55.1424 5.7344-61.44 3.584-10.0352-4.608-22.3232-19.968-23.6032-33.0752 1.7408-4.4032 1.8944-5.9392 5.888-8.2944h31.8976v-4.7104c-29.4912-10.8544 5.5296-41.4208 14.1824-54.272 25.3952-37.6832 52.4288-74.3936 72.0896-119.2448 12.3392-28.1088 17.152-64.5632 34.304-88.5248 22.6816-1.1776 78.08 25.8048 90.9824 40.1408a25.1904 25.1904 0 0 1-2.3552 13.0048c-21.6576 7.0144-46.8992 22.8352-48.4352 48.384l3.5328 2.3552c11.264 4.5056 28.8256-1.024 39.0144-1.1776 11.776-0.2048 32.1536 4.4544 46.08 2.3552 21.6576-3.2256 32.6656-35.328 50.8416-46.08 17.8688 5.12 83.4048 57.0368 75.6224 76.8l-5.888 7.0656h-164.352v4.7104c12.6976 19.712 32.768 25.8048 37.888 55.5008 6.2976 36.5568-42.0352 69.9392-69.7344 50.688-12.0832-33.536-12.8-85.1456-36.6592-107.3664l-7.0656 1.1776c-15.6672 27.5968-97.8944 105.6256-128.8704 115.712l1.1776 4.6592 212.7872 1.2288c17.1008-13.568 19.968-34.5088 42.496-43.6736 22.528 2.56 64.3584 41.5744 78.0288 56.6272-1.28 25.2416-24.2688 19.456-29.5424 36.608l1.1776 278.528c0 34.304 4.608 79.104-9.472 100.352-9.984 15.2064-32.0512 19.0464-50.7904 25.9584-14.1824 5.2736-30.8736 16.5888-49.664 11.776-25.8048-67.584-30.0032-47.9744-85.0944-80.2304-1.9968-8.96 0.4608-10.6496 1.1776-21.248l-2.3552-1.1776c-5.9392 1.792-18.7392 6.144-27.136 4.7104-11.4688-8.704-10.3424-19.5072-13.056-35.3792a4232.3968 4232.3968 0 0 0-3.5328-1.1776c-7.8848-3.4816-92.7232-3.9424-103.9872 2.3552-3.4304 37.888-5.7856 43.9296-40.192 54.272-7.0144 2.0992-14.4896 9.216-21.2992 4.7104-20.1728-8.8064-8.3968-55.2448-8.2432-82.5856l-1.1776-223.1296c-9.728-8.96-21.7088-11.4176-29.5424-22.4256l-11.8272-28.3136-27.1872-36.5568c-8.3456-10.9568-22.4768-15.9232-28.3648-29.5424-2.048-7.2704 0.7168-13.312 3.5328-18.8928 27.648-3.84 51.2512 20.1216 75.6224 16.5376v-7.0656c-9.8304-24.2176-16.5888-76.2368-43.7248-81.4592-16.384-3.1744-31.1808 33.4848-38.9632 44.8512-30.8224 44.7488-76.288 81.408-114.688 119.2448-11.4176 0.4096-16.6912-1.9456-20.0704-9.472a16.384 16.384 0 0 1-1.1776-14.1824l28.3648-36.5568 54.3744-90.88 40.192-87.3472c8.3456-26.112 11.4688-54.0672 23.6032-77.9264L307.2 143.36z m394.752 69.632l3.5328 1.28-1.1776 2.56-3.584 1.28-2.304-1.28V215.552l1.1776-1.28 2.3552-1.28zM258.7136 438.4256c28.6208 5.2736 62.9248 15.5136 82.7392 30.72 1.024 18.2784-10.3936 17.2544-14.1824 29.4912l1.1776 252.6208c0 23.1424 6.4 89.8048-2.3552 103.8336-9.9328 15.9744-48.64 33.1264-74.4448 28.3648l-7.1168-7.1168c1.28-91.2384 4.7616-192.512 4.7616-290.304 0-42.496-7.424-112.0256 0-142.848l9.4208-4.7616z m458.5984 24.832h5.12c-3.584 4.9152-0.256 1.536-5.12 5.12v-5.12z m-248.2176 75.52c-3.4304 2.3552-4.8128 2.0992-7.0656 5.888-5.4272 12.9536-2.56 49.92 1.1776 61.44 15.616 5.6832 98.9696 4.608 109.9264-2.4064 1.536-17.92 2.7136-50.7904-3.584-62.5664l-100.4544-2.3552z m-2.3552 103.8848l-4.7104 5.888c-5.12 17.0496-3.3792 55.7568 5.888 62.5664 31.8976-7.9872 81.9712 9.216 105.216-4.7104 2.56-14.6944 2.304-52.9408-4.7616-63.744H466.7392z m235.2128 137.728h5.12-5.12z" /></svg>