<?xml version="1.0" standalone="no"?><!DOCTYPE svg PUBLIC "-//W3C//DTD SVG 1.1//EN" "http://www.w3.org/Graphics/SVG/1.1/DTD/svg11.dtd"><svg class="icon" width="200px" height="200.00px" viewBox="0 0 1024 1024" version="1.1" xmlns="http://www.w3.org/2000/svg"><path fill="#333333" d="M363.386 397.236h273.385v114.991H363.386v-114.99zM511.998 77.807c-237.094 0-429.297 194.413-429.297 434.205 0 239.79 192.204 434.18 429.297 434.18 237.096 0 429.301-194.39 429.301-434.18 0-239.792-192.204-434.205-429.301-434.205zM271.601 236.25h477.682v43.997H271.601v-43.997zM705.857 349.24v206.984H295.288V349.24h410.57z m43.426 393.968H247.914V698.21h157.178c-13.67-47.996-31.487-65.244-53.62-98.78l53.62-19.015c21.285 31.843 40.263 69.799 57.068 117.795h101.443c20.093-47.996 37.73-78.173 52.907-120.28l58.292 23.979c-15.231 35.517-31.698 48.305-49.124 96.301h123.607v44.997h-0.002z" /></svg>